HIERARCHY
ROOT Hips
{
	OFFSET 0.000000 83.214638 0.000000
	CHANNELS 6 Xposition Yposition Zposition Xrotation Yrotation Zrotation
	JOINT Pelvis
	{
		OFFSET 0.000000 0.000000 0.000000
		CHANNELS 3 Xrotation Yrotation Zrotation
		JOINT LeftUpLeg
		{
			OFFSET 8.479700 -4.795502 -0.379100
			CHANNELS 3 Xrotation Yrotation Zrotation
			JOINT LeftLeg
			{
				OFFSET 0.024144 -32.555107 0.112900
				CHANNELS 3 Xrotation Yrotation Zrotation
				JOINT LeftFoot
				{
					OFFSET -0.024144 -32.638630 -3.012600
					CHANNELS 3 Xrotation Yrotation Zrotation
					JOINT LeftToeBase
					{
						OFFSET 0.970200 -13.225400 11.864200
						CHANNELS 3 Xrotation Yrotation Zrotation
						End Site
						{
							OFFSET 0.000000 12.319262 0.000000
						}
					}
					JOINT LFootTongue
					{
						OFFSET 1.142400 -1.059800 6.665200
						CHANNELS 3 Xrotation Yrotation Zrotation
						End Site
						{
							OFFSET 0.000000 12.319262 0.000000
						}
					}
				}
				JOINT LeftPantLeg
				{
					OFFSET 0.918482 -16.533964 -2.284700
					CHANNELS 3 Xrotation Yrotation Zrotation
					End Site
					{
						OFFSET 0.350399 24.744368 0.000000
					}
				}
			}
		}
		JOINT RightUpLeg
		{
			OFFSET -8.479700 -4.795502 -0.379100
			CHANNELS 3 Xrotation Yrotation Zrotation
			JOINT RightLeg
			{
				OFFSET -0.023144 -32.555092 0.112900
				CHANNELS 3 Xrotation Yrotation Zrotation
				JOINT RightFoot
				{
					OFFSET 0.023144 -32.638641 -3.012700
					CHANNELS 3 Xrotation Yrotation Zrotation
					JOINT RightToeBase
					{
						OFFSET -0.970200 -13.225400 11.864200
						CHANNELS 3 Xrotation Yrotation Zrotation
						End Site
						{
							OFFSET 0.000000 12.319244 0.000000
						}
					}
					JOINT RFootTongue
					{
						OFFSET -1.142200 -1.059800 6.665200
						CHANNELS 3 Xrotation Yrotation Zrotation
						End Site
						{
							OFFSET 0.000000 12.319243 0.000000
						}
					}
				}
				JOINT RightPantLeg
				{
					OFFSET -0.919482 -16.533978 -2.284800
					CHANNELS 3 Xrotation Yrotation Zrotation
					End Site
					{
						OFFSET -0.350400 24.744419 0.000000
					}
				}
			}
		}
	}
	JOINT Spine
	{
		OFFSET 0.000000 7.722000 1.166200
		CHANNELS 3 Xrotation Yrotation Zrotation
		JOINT Spine1
		{
			OFFSET 0.000000 12.024101 0.248800
			CHANNELS 3 Xrotation Yrotation Zrotation
			JOINT Spine2
			{
				OFFSET 0.000000 11.502998 -0.491200
				CHANNELS 3 Xrotation Yrotation Zrotation
				JOINT Neck
				{
					OFFSET 0.000000 18.430702 -3.123100
					CHANNELS 3 Xrotation Yrotation Zrotation
					JOINT Head
					{
						OFFSET 0.000000 9.051102 1.034000
						CHANNELS 3 Xrotation Yrotation Zrotation
						JOINT HairB
						{
							OFFSET 0.208400 24.786102 24.822300
							CHANNELS 3 Xrotation Yrotation Zrotation
							End Site
							{
								OFFSET 0.000000 32.263779 0.000000
							}
						}
						JOINT HairA
						{
							OFFSET -7.081100 24.428299 23.196600
							CHANNELS 3 Xrotation Yrotation Zrotation
							End Site
							{
								OFFSET 0.000000 32.263779 0.000000
							}
						}
						JOINT Hat
						{
							OFFSET 16.728800 15.048294 -15.439601
							CHANNELS 3 Xrotation Yrotation Zrotation
							End Site
							{
								OFFSET 0.000000 32.263779 0.000000
							}
						}
					}
				}
				JOINT LeftShoulder
				{
					OFFSET 6.197800 13.665199 -4.064700
					CHANNELS 3 Xrotation Yrotation Zrotation
					JOINT LeftArm
					{
						OFFSET 7.778100 -0.187103 -1.709300
						CHANNELS 3 Xrotation Yrotation Zrotation
						JOINT LeftForeArm
						{
							OFFSET 22.049376 0.000000 0.000000
							CHANNELS 3 Xrotation Yrotation Zrotation
							JOINT LeftHand
							{
								OFFSET 23.009392 0.000000 0.000000
								CHANNELS 3 Xrotation Yrotation Zrotation
								JOINT LeftHandThumb1
								{
									OFFSET 3.507191 -2.063065 3.133727
									CHANNELS 3 Xrotation Yrotation Zrotation
									JOINT LeftHandThumb2
									{
										OFFSET 3.101337 -1.790558 1.790558
										CHANNELS 3 Xrotation Yrotation Zrotation
										JOINT LeftHandThumb3
										{
											OFFSET 3.058640 -1.765907 1.765906
											CHANNELS 3 Xrotation Yrotation Zrotation
											End Site
											{
												OFFSET -0.415260 3.926476 -0.049563
											}
										}
									}
								}
								JOINT LeftHandIndex1
								{
									OFFSET 11.334419 -0.901459 3.706815
									CHANNELS 3 Xrotation Yrotation Zrotation
									JOINT LeftHandIndex2
									{
										OFFSET 3.283112 0.000000 0.000000
										CHANNELS 3 Xrotation Yrotation Zrotation
										JOINT LeftHandIndex3
										{
											OFFSET 3.323853 0.000000 0.000000
											CHANNELS 3 Xrotation Yrotation Zrotation
											End Site
											{
												OFFSET -1.135597 3.097809 0.402452
											}
										}
									}
								}
								JOINT LeftHandMiddle1
								{
									OFFSET 11.335861 0.000000 0.000000
									CHANNELS 3 Xrotation Yrotation Zrotation
									JOINT LeftHandMiddle2
									{
										OFFSET 3.410492 0.000000 0.000000
										CHANNELS 3 Xrotation Yrotation Zrotation
										JOINT LeftHandMiddle3
										{
											OFFSET 3.312172 0.000000 0.000000
											CHANNELS 3 Xrotation Yrotation Zrotation
											End Site
											{
												OFFSET -1.150200 3.080154 0.400270
											}
										}
									}
								}
								JOINT LeftHandRing1
								{
									OFFSET 11.514786 -0.013176 -3.003090
									CHANNELS 3 Xrotation Yrotation Zrotation
									JOINT LeftHandRing2
									{
										OFFSET 3.053307 0.000000 0.000000
										CHANNELS 3 Xrotation Yrotation Zrotation
										JOINT LeftHandRing3
										{
											OFFSET 3.295807 0.000000 0.000000
											CHANNELS 3 Xrotation Yrotation Zrotation
											End Site
											{
												OFFSET -1.281006 3.013344 0.375733
											}
										}
									}
								}
								JOINT LeftHandPinky1
								{
									OFFSET 10.518692 -0.960396 -5.730441
									CHANNELS 3 Xrotation Yrotation Zrotation
									JOINT LeftHandPinky2
									{
										OFFSET 2.861649 0.000000 0.000000
										CHANNELS 3 Xrotation Yrotation Zrotation
										JOINT LeftHandPinky3
										{
											OFFSET 2.863380 0.000000 0.000000
											CHANNELS 3 Xrotation Yrotation Zrotation
											End Site
											{
												OFFSET -0.843597 2.711159 0.369971
											}
										}
									}
								}
							}
							JOINT LSleeve
							{
								OFFSET 6.676277 -0.344902 -1.011730
								CHANNELS 3 Xrotation Yrotation Zrotation
								End Site
								{
									OFFSET 0.000000 14.885353 0.000000
								}
							}
						}
					}
				}
				JOINT RightShoulder
				{
					OFFSET -6.197800 13.665199 -4.064700
					CHANNELS 3 Xrotation Yrotation Zrotation
					JOINT RightArm
					{
						OFFSET -7.778100 -0.187103 -1.709300
						CHANNELS 3 Xrotation Yrotation Zrotation
						JOINT RightForeArm
						{
							OFFSET -22.049376 0.000000 0.000000
							CHANNELS 3 Xrotation Yrotation Zrotation
							JOINT RightHand
							{
								OFFSET -23.009392 0.000000 0.000000
								CHANNELS 3 Xrotation Yrotation Zrotation
								JOINT RightHandThumb1
								{
									OFFSET -3.507191 -2.063065 3.133727
									CHANNELS 3 Xrotation Yrotation Zrotation
									JOINT RightHandThumb2
									{
										OFFSET -3.101337 -1.790558 1.790558
										CHANNELS 3 Xrotation Yrotation Zrotation
										JOINT RightHandThumb3
										{
											OFFSET -3.058640 -1.765907 1.765906
											CHANNELS 3 Xrotation Yrotation Zrotation
											End Site
											{
												OFFSET 0.415260 3.926476 -0.049563
											}
										}
									}
								}
								JOINT RightHandIndex1
								{
									OFFSET -11.334419 -0.901459 3.706815
									CHANNELS 3 Xrotation Yrotation Zrotation
									JOINT RightHandIndex2
									{
										OFFSET -3.283112 0.000000 0.000000
										CHANNELS 3 Xrotation Yrotation Zrotation
										JOINT RightHandIndex3
										{
											OFFSET -3.323853 0.000000 0.000000
											CHANNELS 3 Xrotation Yrotation Zrotation
											End Site
											{
												OFFSET 1.135597 3.097809 0.402452
											}
										}
									}
								}
								JOINT RightHandMiddle1
								{
									OFFSET -11.335861 0.000000 0.000000
									CHANNELS 3 Xrotation Yrotation Zrotation
									JOINT RightHandMiddle2
									{
										OFFSET -3.410492 0.000000 0.000000
										CHANNELS 3 Xrotation Yrotation Zrotation
										JOINT RightHandMiddle3
										{
											OFFSET -3.312172 0.000000 0.000000
											CHANNELS 3 Xrotation Yrotation Zrotation
											End Site
											{
												OFFSET 1.150200 3.080154 0.400270
											}
										}
									}
								}
								JOINT RightHandRing1
								{
									OFFSET -11.514786 -0.013176 -3.003090
									CHANNELS 3 Xrotation Yrotation Zrotation
									JOINT RightHandRing2
									{
										OFFSET -3.053307 0.000000 0.000000
										CHANNELS 3 Xrotation Yrotation Zrotation
										JOINT RightHandRing3
										{
											OFFSET -3.295807 0.000000 0.000000
											CHANNELS 3 Xrotation Yrotation Zrotation
											End Site
											{
												OFFSET 1.281006 3.013344 0.375733
											}
										}
									}
								}
								JOINT RightHandPinky1
								{
									OFFSET -10.518692 -0.960396 -5.730441
									CHANNELS 3 Xrotation Yrotation Zrotation
									JOINT RightHandPinky2
									{
										OFFSET -2.861649 0.000000 0.000000
										CHANNELS 3 Xrotation Yrotation Zrotation
										JOINT RightHandPinky3
										{
											OFFSET -2.863380 0.000000 0.000000
											CHANNELS 3 Xrotation Yrotation Zrotation
											End Site
											{
												OFFSET 0.843597 2.711159 0.369971
											}
										}
									}
								}
							}
							JOINT RSleeve
							{
								OFFSET -6.676277 -0.344902 -1.011730
								CHANNELS 3 Xrotation Yrotation Zrotation
								End Site
								{
									OFFSET 0.000000 14.885353 0.000000
								}
							}
						}
					}
				}
				JOINT Backpack
				{
					OFFSET 0.000000 -2.471497 36.677502
					CHANNELS 3 Xrotation Yrotation Zrotation
					End Site
					{
						OFFSET 0.000000 20.427315 0.000000
					}
				}
				JOINT Hood
				{
					OFFSET 0.000000 18.754097 -10.431000
					CHANNELS 3 Xrotation Yrotation Zrotation
					JOINT Hood1
					{
						OFFSET 0.000000 -5.011002 -7.685901
						CHANNELS 3 Xrotation Yrotation Zrotation
						End Site
						{
							OFFSET 0.000000 9.175140 0.000000
						}
					}
				}
				JOINT LHoodieString
				{
					OFFSET 5.250500 16.397697 3.089900
					CHANNELS 3 Xrotation Yrotation Zrotation
					JOINT LHoodieString1
					{
						OFFSET 0.257700 -6.364304 3.694600
						CHANNELS 3 Xrotation Yrotation Zrotation
						JOINT LHoodieString2
						{
							OFFSET 0.000000 -9.643799 2.679100
							CHANNELS 3 Xrotation Yrotation Zrotation
							End Site
							{
								OFFSET 0.000000 10.009018 0.000000
							}
						}
					}
				}
				JOINT RHoodieString
				{
					OFFSET -5.250500 16.397697 3.089900
					CHANNELS 3 Xrotation Yrotation Zrotation
					JOINT RHoodieString1
					{
						OFFSET -0.257700 -6.364304 3.694600
						CHANNELS 3 Xrotation Yrotation Zrotation
						JOINT RHoodieString2
						{
							OFFSET 0.000000 -9.643799 2.679100
							CHANNELS 3 Xrotation Yrotation Zrotation
							End Site
							{
								OFFSET 0.000000 10.009018 0.000000
							}
						}
					}
				}
			}
			JOINT LBackpack_Strap
			{
				OFFSET 15.223200 -7.719803 -6.610900
				CHANNELS 3 Xrotation Yrotation Zrotation
				End Site
				{
					OFFSET 0.000000 16.040596 0.000000
				}
			}
			JOINT RBackpack_Strap
			{
				OFFSET -15.223000 -7.719803 -6.610900
				CHANNELS 3 Xrotation Yrotation Zrotation
				End Site
				{
					OFFSET 0.000000 16.040596 0.000000
				}
			}
		}
	}
	JOINT BoyFacialAnim_Joint
	{
		OFFSET 1.000000 -82.208099 -1.550900
		CHANNELS 3 Xrotation Yrotation Zrotation
		End Site
		{
			OFFSET 0.000000 30.012791 0.000000
		}
	}
}
MOTION
Frames: 5
Frame Time: 0.033333
-1.558932 79.240700 0.976200 -2.511616 -9.614141 -1.412316 0.000000 0.000000 0.000000 -25.349501 6.838349 11.227869 31.037944 5.237202 -3.636489 -2.860595 -0.138848 -2.440805 -0.000000 -0.000000 0.000000 -0.000000 -0.000000 -0.000000 0.000000 -0.000000 -0.000000 -1.202772 -7.768875 -0.667614 26.754187 -8.468898 -0.136798 -22.199011 -4.966806 4.579873 0.000000 0.000002 0.000000 0.000000 0.000002 0.000000 0.000000 -0.000002 -0.000000 -0.244351 2.821313 1.193975 -0.015799 6.191984 -0.413431 -0.019427 6.194581 -0.443989 2.190071 -0.991285 1.150241 -5.525502 -3.258407 -1.975748 -0.000000 -0.000000 -0.000000 -0.000000 -0.000000 -0.000000 -0.000000 -0.000000 -0.000000 0.852294 -2.138069 -4.862728 8.962181 14.144744 -64.793422 0.000006 -11.999552 0.000011 25.172039 -18.823619 -18.578055 -1.789171 14.196017 7.738107 3.939056 7.948700 0.746788 0.000001 0.000000 -0.000001 0.358223 2.196045 -18.527197 0.358231 2.196029 -18.527226 -0.000000 -0.000002 -0.000002 0.265318 1.896592 -15.925824 0.374589 2.244247 -18.949711 0.000002 0.000000 -0.000001 0.304011 2.027171 -17.055650 0.427475 2.392618 -20.257021 0.000002 0.000002 -0.000000 2.023877 6.360896 -21.701666 0.512184 -1.459805 -22.567618 -0.000001 0.000000 -0.000005 0.000000 -0.000000 0.000001 0.946898 -0.752551 10.656990 -14.217874 37.536076 61.399931 0.000006 54.319648 -0.000001 44.249999 6.123157 3.126834 -4.970573 -9.296921 -8.858662 4.637207 -8.634128 -0.225409 0.000001 -0.000002 -0.000001 0.254844 -1.868794 15.529560 0.254843 -1.868804 15.529560 0.000001 0.000001 -0.000002 0.219476 -1.736539 14.405058 0.308861 -2.053199 17.108140 0.000001 0.000001 0.000002 0.292383 -1.998857 16.641630 0.411183 -2.359906 19.765189 -0.000000 -0.000003 0.000002 0.540134 -2.691525 22.690471 0.540122 -2.691536 22.690481 -0.000002 -0.000004 -0.000000 0.000002 0.000001 0.000002 0.000000 -0.000000 -0.000000 0.000000 -0.000000 -0.000000 0.000000 -0.000000 -0.000000 0.000000 -0.000000 -0.000000 0.000000 -0.000000 0.000000 0.000000 -0.000000 0.000000 0.000000 -0.000000 -0.000000 0.000000 -0.000000 0.000000 0.000000 -0.000000 0.000000 -0.000000 0.000000 0.000000 -0.000000 0.000000 0.000000 0.000000 0.000000 0.000000 
-1.080212 78.876808 2.047587 -0.794640 -8.248172 -1.438302 0.000000 0.000001 0.000000 -28.083520 6.334401 10.576939 34.105716 5.189656 -3.798993 -5.005341 -0.165271 -1.611438 0.000000 0.000000 -0.000000 0.000000 0.000000 0.000000 0.000000 0.000000 0.000000 -1.945325 -7.875181 -0.792752 27.051056 -8.800237 -0.143148 -23.113000 -5.864458 5.462410 0.000000 0.000000 -0.000000 0.000000 0.000000 -0.000000 0.000001 -0.000000 -0.000000 -0.063010 3.026427 0.857443 0.347601 6.540944 -1.002714 0.350700 6.537657 -1.032677 0.926303 -1.327747 0.971506 -8.804909 -5.239407 -1.667393 -0.000000 -0.000000 -0.000000 -0.000000 -0.000000 -0.000000 -0.000000 -0.000000 -0.000000 0.832803 -2.062905 -4.207484 10.021953 13.211012 -62.333816 -0.000003 -16.630561 -0.000018 16.180440 -18.685256 -20.625454 -1.789173 14.196023 7.738106 3.939054 7.948700 0.746790 -0.000001 -0.000000 0.000002 0.358223 2.196045 -18.527195 0.358230 2.196025 -18.527226 -0.000003 0.000000 -0.000002 0.265317 1.896592 -15.925824 0.374591 2.244248 -18.949713 -0.000000 -0.000000 -0.000005 0.304009 2.027173 -17.055652 0.427475 2.392616 -20.257019 -0.000000 -0.000002 0.000001 2.023876 6.360897 -21.701666 0.512184 -1.459805 -22.567618 -0.000001 -0.000000 -0.000002 0.000000 -0.000001 0.000001 0.863623 -0.939397 9.217231 -16.193624 34.748277 61.953135 -0.000021 49.962923 0.000019 44.276131 7.487743 3.480641 -4.970574 -9.296923 -8.858659 4.637207 -8.634132 -0.225407 0.000001 0.000000 -0.000001 0.254842 -1.868799 15.529560 0.254844 -1.868803 15.529564 -0.000001 0.000002 0.000006 0.219475 -1.736544 14.405057 0.308861 -2.053198 17.108140 0.000001 0.000003 0.000004 0.292382 -1.998860 16.641626 0.411182 -2.359910 19.765195 -0.000002 -0.000003 -0.000000 0.540131 -2.691528 22.690471 0.540121 -2.691535 22.690483 -0.000000 0.000000 0.000004 -0.000004 0.000000 0.000002 0.000000 0.000001 0.000000 0.000000 0.000001 0.000000 0.000000 0.000001 0.000000 0.000000 0.000001 0.000000 0.000000 0.000001 0.000000 0.000000 0.000001 -0.000000 0.000000 0.000001 0.000000 0.000000 0.000001 0.000000 0.000000 0.000001 -0.000000 0.000000 0.000000 0.000000 0.000000 0.000000 0.000000 0.000000 0.000001 0.000000 
-0.587503 78.448647 3.258442 1.869964 -7.243052 -1.373611 0.000000 0.000001 -0.000000 -31.613141 5.959072 10.164459 37.086192 4.835191 -4.075124 -7.209988 -0.240623 -0.881472 0.000000 0.000000 -0.000000 0.000000 0.000000 -0.000000 0.000000 -0.000001 0.000000 -3.666791 -7.375408 -0.765655 27.455079 -8.556373 -0.270925 -24.110481 -7.702434 6.075315 0.000000 0.000000 -0.000000 0.000000 0.000000 -0.000000 -0.000001 0.000001 -0.000001 0.094662 3.281746 0.284343 0.622211 7.000076 -1.656172 0.637181 6.992095 -1.681106 -0.615823 -1.702229 0.790721 -11.818415 -7.387933 -1.420486 -0.000000 0.000000 0.000000 -0.000000 0.000000 0.000000 -0.000000 0.000000 0.000000 0.809358 -1.994706 -3.568484 9.942778 12.906275 -59.585348 0.000001 -19.650891 0.000025 11.824508 -17.358922 -20.887019 -1.789170 14.196020 7.738107 3.939055 7.948700 0.746788 0.000000 0.000001 0.000002 0.358223 2.196043 -18.527199 0.358231 2.196027 -18.527228 -0.000003 0.000001 -0.000003 0.265320 1.896591 -15.925827 0.374589 2.244251 -18.949706 0.000001 0.000000 -0.000003 0.304008 2.027173 -17.055652 0.427477 2.392616 -20.257019 -0.000001 -0.000000 -0.000004 2.023878 6.360898 -21.701666 0.512186 -1.459804 -22.567614 -0.000002 0.000002 -0.000002 0.000001 0.000000 -0.000001 0.778615 -1.030552 7.703191 -17.538561 31.741573 61.588362 -0.000000 45.643497 -0.000016 44.119737 9.244949 5.030186 -4.970571 -9.296921 -8.858660 4.637208 -8.634129 -0.225408 0.000000 0.000000 -0.000004 0.254844 -1.868798 15.529560 0.254841 -1.868806 15.529562 -0.000002 -0.000001 0.000005 0.219475 -1.736540 14.405052 0.308861 -2.053197 17.108138 0.000002 0.000001 -0.000000 0.292381 -1.998859 16.641631 0.411182 -2.359904 19.765189 0.000004 0.000001 -0.000001 0.540134 -2.691524 22.690471 0.540124 -2.691537 22.690481 0.000000 -0.000001 -0.000002 0.000001 -0.000001 0.000001 0.000000 -0.000000 -0.000000 0.000000 -0.000000 -0.000000 0.000000 -0.000000 -0.000000 0.000000 -0.000000 -0.000000 0.000000 -0.000000 0.000000 0.000000 0.000000 0.000000 0.000000 -0.000000 -0.000000 0.000000 -0.000000 0.000000 0.000000 0.000000 0.000000 -0.000000 -0.000000 -0.000000 -0.000000 -0.000000 -0.000000 0.000000 0.000001 -0.000000 
-0.119823 77.880692 4.635886 4.443992 -6.394098 -1.162767 -0.000000 -0.000000 -0.000000 -34.905552 6.061909 9.894227 40.412744 4.313124 -4.610923 -9.909552 -0.280905 -0.055246 0.000000 0.000000 -0.000000 0.000000 0.000000 0.000000 0.000000 -0.000000 -0.000000 -5.364590 -6.611198 -0.743620 28.307442 -8.363685 -0.670846 -25.539949 -9.534875 6.760583 0.000000 0.000000 0.000000 0.000000 0.000000 0.000000 0.000000 0.000000 -0.000000 0.404533 3.527235 -0.474153 1.145396 7.520316 -2.441586 1.176538 7.515578 -2.445013 -2.232899 -2.130860 0.778111 -14.751366 -9.566770 -1.241500 0.000000 0.000000 -0.000000 0.000000 0.000000 -0.000000 0.000000 0.000000 -0.000000 0.815174 -2.200115 -3.062200 8.909651 13.026349 -56.223303 0.000004 -20.895357 0.000001 10.208271 -16.470779 -20.543802 -1.789172 14.196019 7.738108 3.939056 7.948699 0.746788 0.000001 -0.000001 0.000000 0.358222 2.196041 -18.527197 0.358230 2.196027 -18.527228 -0.000002 0.000001 -0.000003 0.265321 1.896591 -15.925827 0.374589 2.244251 -18.949709 0.000001 -0.000001 -0.000000 0.304009 2.027171 -17.055652 0.427474 2.392616 -20.257018 0.000001 -0.000001 -0.000000 2.023879 6.360895 -21.701666 0.512185 -1.459805 -22.567621 -0.000001 -0.000000 0.000005 -0.000001 0.000000 -0.000001 0.697498 -0.946023 6.069413 -18.098073 28.326844 60.550720 -0.000007 41.141153 -0.000000 43.897472 10.815251 6.714602 -4.970576 -9.296922 -8.858660 4.637208 -8.634128 -0.225409 -0.000000 0.000001 -0.000002 0.254842 -1.868794 15.529557 0.254840 -1.868807 15.529564 -0.000000 0.000001 0.000005 0.219474 -1.736538 14.405060 0.308860 -2.053201 17.108140 0.000001 0.000003 0.000000 0.292381 -1.998858 16.641636 0.411182 -2.359905 19.765193 -0.000001 -0.000004 0.000002 0.540131 -2.691524 22.690476 0.540126 -2.691530 22.690483 0.000002 -0.000002 0.000003 -0.000000 -0.000000 0.000002 -0.000000 -0.000000 0.000000 -0.000000 -0.000000 0.000000 -0.000000 -0.000000 0.000000 -0.000000 -0.000000 0.000000 -0.000000 -0.000000 0.000000 0.000000 -0.000000 -0.000000 -0.000000 -0.000000 0.000000 -0.000000 -0.000000 0.000000 0.000000 -0.000000 -0.000000 0.000001 -0.000000 -0.000000 0.000001 -0.000000 -0.000000 -0.000000 -0.000000 -0.000000 
0.359751 77.221603 6.182262 6.332877 -5.334934 -1.082223 0.000000 -0.000000 0.000000 -37.371021 6.150340 9.382806 43.925776 4.307163 -4.811292 -12.917502 -0.220268 0.468512 0.000000 0.000000 -0.000000 0.000000 0.000000 0.000000 -0.000000 -0.000000 -0.000000 -6.634170 -5.275153 -0.029029 30.181510 -8.120213 -1.671512 -27.888298 -11.463261 5.147381 0.000000 -0.000000 0.000000 0.000000 -0.000000 0.000000 -0.000001 0.000001 -0.000001 1.014484 3.682447 -1.210265 2.235648 7.997891 -3.387548 2.286109 8.007540 -3.345819 -3.896001 -2.634703 0.912327 -17.750480 -11.999209 -0.870774 0.000000 -0.000000 0.000000 0.000000 -0.000000 0.000000 0.000000 -0.000000 0.000000 0.861178 -2.720124 -2.584407 7.326651 13.165456 -52.523970 -0.000000 -21.222979 -0.000006 9.278312 -16.719839 -20.538322 -1.789171 14.196020 7.738106 3.939056 7.948702 0.746787 -0.000001 0.000001 -0.000000 0.358223 2.196042 -18.527195 0.358232 2.196027 -18.527228 0.000000 0.000001 0.000000 0.265319 1.896591 -15.925822 0.374592 2.244248 -18.949709 0.000001 -0.000000 0.000002 0.304009 2.027172 -17.055650 0.427475 2.392615 -20.257018 -0.000001 -0.000001 0.000001 2.023877 6.360897 -21.701668 0.512186 -1.459806 -22.567616 0.000001 0.000001 -0.000004 -0.000001 -0.000000 0.000001 0.641922 -0.668379 4.447843 -17.880465 24.112420 59.101524 -0.000003 36.475013 -0.000002 43.756039 11.709734 7.833565 -4.970574 -9.296921 -8.858664 4.637208 -8.634129 -0.225408 0.000000 0.000000 0.000004 0.254842 -1.868796 15.529564 0.254841 -1.868805 15.529564 -0.000001 -0.000001 0.000003 0.219474 -1.736543 14.405060 0.308861 -2.053199 17.108140 0.000002 -0.000000 -0.000000 0.292380 -1.998861 16.641633 0.411184 -2.359905 19.765191 -0.000000 0.000002 0.000001 0.540132 -2.691526 22.690471 0.540124 -2.691534 22.690481 -0.000000 0.000000 -0.000001 -0.000000 -0.000003 0.000001 -0.000001 -0.000001 -0.000000 -0.000001 -0.000001 -0.000000 -0.000001 -0.000001 -0.000000 -0.000001 -0.000001 -0.000000 -0.000001 -0.000001 -0.000000 -0.000002 -0.000001 0.000000 -0.000001 -0.000001 -0.000000 -0.000001 -0.000001 -0.000000 -0.000002 -0.000001 0.000000 0.000000 -0.000000 0.000000 0.000000 -0.000000 0.000000 0.000000 -0.000000 0.000000 
